# xmcd CD database file
#
# Track frame offsets:
#	150
#	61096
#	91424
#	129544
#	159733
#	201746
#	249639
#	291197
#
# Disc length: 4397 seconds
#
# Revision: 2
# Processed by: cddbd v1.5.2PL0 Copyright (c) Steve Scherf et al.
# Submitted via: CDex 1.51
#
DISCID=78112b08
DTITLE=Various Artist - Evgeny Svetlanov - Vol.01
DYEAR=1900
DGENRE=Classique
TTITLE0=Alexander Borodin - Symphony N°1 in E flat major - I. Adagio - Allegro  [USSR State Symphony Orchestra - 1983]
TTITLE1=Alexander Borodin - Symphony N°1 in E flat major - II. Scherzo - Prestissimo - Trio - Allegro
TTITLE2=Alexander Borodin - Symphony N°1 in E flat major - III. Andante
TTITLE3=Alexander Borodin - Symphony N°1 in E flat major - IV. Allegro molto vivo
TTITLE4=Alexander Borodin - Symphony N°3 in A minor - I. Moderato assai  [USSR State Symphony Orchestra - 1982]
TTITLE5=Alexander Borodin - Symphony N°3 in A minor - II. Scherzo
TTITLE6=Alexander Glazunov - Concert Waltzes for Orchestra  N°1 in D major Op.47  [Bolshoi Theatre Orchestra - 1961]
TTITLE7=Alexander Glazunov - Concert Waltzes for Orchestra  N°2 in F major Op.51
EXTD=
EXTT0=
EXTT1=
EXTT2=
EXTT3=
EXTT4=
EXTT5=
EXTT6=
EXTT7=
PLAYORDER=
